# xmcd
#
# Track frame offsets:
#	150
#	17429
#	32228
#	48065
#	64545
#	83491
#	101395
#	118805
#	136957
#	154695
#	171963
#
# Disc length: 2532 seconds
#
# Revision: 6
# Processed by: cddbd v1.5.2PL0 Copyright (c) Steve Scherf et al.
# Submitted via: EasyCDDAExtractor 15.3.0.1
#
DISCID=7c09e20b
DTITLE=Nek - Las Cosas Que Defendere
DYEAR=2002
DGENRE=Latin
TTITLE0=Las Cosas Que Defendere
TTITLE1=Tan Solo Tu (Featuring Laura Pausini)
TTITLE2=Hablemos En Pasado
TTITLE3=Cuando Tu No Estas
TTITLE4=Hazme Amarte
TTITLE5=Cielo Y Tierra
TTITLE6=Todo De Ti
TTITLE7=Laberinto
TTITLE8=Mi Naturaleza
TTITLE9=La Consecuencia
TTITLE10=Cielo Y Tierra (Duet With Dante Thomas)
EXTD=YEAR: 2002
EXTT0=
EXTT1=
EXTT2=
EXTT3=
EXTT4=
EXTT5=
EXTT6=
EXTT7=
EXTT8=
EXTT9=
EXTT10=
PLAYORDER=
